<?xml version="1.0" encoding="utf-8"?><svg viewBox="0 0 14 14" xmlns="http://www.w3.org/2000/svg" xmlns:xlink="http://www.w3.org/1999/xlink"><style>:root>svg{display:none}:root>svg:target{display:block}</style><svg fill="none" viewBox="0 0 12 7" id="header-arrow" xmlns="http://www.w3.org/2000/svg"><path d="m1 1 5 5 5-5" stroke="#1F1F1F"/></svg><svg fill="none" viewBox="0 0 14 14" id="header-phone" xmlns="http://www.w3.org/2000/svg"><g clip-path="url(#ba)"><path d="M2.816 6.059a11.782 11.782 0 0 0 5.125 5.125l1.711-1.71c.21-.21.521-.28.794-.187a8.872 8.872 0 0 0 2.776.443.78.78 0 0 1 .778.778v2.714a.78.78 0 0 1-.778.778C5.92 14 0 8.081 0 .778A.78.78 0 0 1 .778 0H3.5a.78.78 0 0 1 .778.778c0 .972.155 1.905.443 2.776a.78.78 0 0 1-.194.794l-1.711 1.71Z" fill="#1F1F1F"/></g><defs><clipPath id="ba"><path fill="#fff" d="M0 0h14v14H0z"/></clipPath></defs></svg><svg fill="none" viewBox="0 0 6 8" id="team-arrow-left" xmlns="http://www.w3.org/2000/svg"><path d="M5.071.786 1.857 4l3.214 3.214" stroke="#000" stroke-width="1.607"/></svg><svg fill="none" viewBox="0 0 6 8" id="team-arrow-right" xmlns="http://www.w3.org/2000/svg"><path d="M.786 7.214 4 4 .786.786" stroke="#000" stroke-width="1.607"/></svg></svg>